<svg width="512" height="512" viewBox="0 0 512 512" fill="none" xmlns="http://www.w3.org/2000/svg" xmlns:xlink="http://www.w3.org/1999/xlink" class=""><rect id="«r9»" width="512" height="512" x="0" y="0" rx="0" fill="url(#«ra»)" stroke="#FFFFFF" stroke-width="0" stroke-opacity="100%" paint-order="stroke"></rect><clipPath id="clip"><use xlink:href="#«r9»"></use></clipPath><defs><radialGradient id="«ra»" cx="50%" cy="50%" r="100%" fx="50%" fy="0%" gradientUnits="objectBoundingBox"><stop stop-color="#1D6E47"></stop><stop offset="1" stop-color="#041B11"></stop></radialGradient><radialGradient id="«rb»" cx="0" cy="0" r="1" gradientUnits="userSpaceOnUse" gradientTransform="translate(256) rotate(90) scale(512)"><stop stop-color="white"></stop><stop offset="1" stop-color="white" stop-opacity="0"></stop></radialGradient></defs><svg xmlns="http://www.w3.org/2000/svg" fill="none" viewBox="0 0 16 16" width="352" height="352" x="80" y="80" alignment-baseline="middle" style="color: rgb(220, 238, 222);"><path stroke="currentColor" stroke-linecap="round" stroke-linejoin="round" stroke-width="1.5" d="M12 6.5a1.75 1.75 0 1 1-3.5 0 1.75 1.75 0 0 1 3.5 0ZM7.5 3.5a1.75 1.75 0 1 1-3.5 0 1.75 1.75 0 0 1 3.5 0ZM10.25 10.75c-1.716 0-3.127.356-3.75 1.75-.447 1 .231 1.75 1.075 1.75h5.35c.844 0 1.522-.75 1.075-1.75-.623-1.394-2.034-1.75-3.75-1.75ZM6 7.755a5.931 5.931 0 0 0-.25-.005c-1.715 0-3.127.356-3.75 1.75-.337.753 0 1.75 1.075 1.75H4.25"></path></svg></svg>